{"title":"Esclaves Au Harem (marc Dorcel)","uid":7148975,"size":1548339731,"categoryP":"porn","categoryS":"movies","magnet":"?xt=urn:btih:7b9badfc61bcd3bd5aecd7ba7ed6e6a5e9ac57b3&amp;dn=Esclaves+Au+Harem+%28marc+Dorcel%29&amp;tr=udp%3A%2F%2Ftracker.openbittorrent.com%3A80&amp;tr=udp%3A%2F%2Fopen.demonii.com%3A1337&amp;tr=udp%3A%2F%2Ftracker.coppersurfer.tk%3A6969&amp;tr=udp%3A%2F%2Fexodus.desync.com%3A6969","seeders":1,"leechers":0,"uploader":"tigris1968","files":5,"time":1333231309,"description":"File Name : Esclaves Au Harem (marc Dorcel)\n \n\nFile Size :   01 19 '  12 ''\n \n\nResolution : 1280   *  720    avi\n \n\nGB :  1.44 GB\n &lt;a href=&quot;\nhttp://bayimg.com/nAnFlAAdl&quot; rel=&quot;nofollow&quot; target=&quot;_NEW&quot;&gt;\nhttp://bayimg.com/nAnFlAAdl&lt;/a&gt;\n &lt;a href=&quot;\nhttp://bayimg.com/NANFpaAdL&quot; rel=&quot;nofollow&quot; target=&quot;_NEW&quot;&gt;\nhttp://bayimg.com/NANFpaAdL&lt;/a&gt;\n\n                                   info\n\nGeneral\nComplete name                    : C:DownloadsEsclaves Au Harem (marc Dorcel)dvdEsclaves Au Harem (marc Dorcel).avi\nFormat                           : AVI\nFormat/Info                      : Audio Video Interleave\nFormat profile                   : OpenDML\nFile size                        : 1.44 GiB\nDuration                         : 1h 19mn\nOverall bit rate                 : 2 604 Kbps\nWriting application              : MEncoder SVN-r30881(20100311-gcc4.3.3)\nWriting library                  : MPlayer\n\nVideo\nID                               : 0\nFormat                           : MPEG-4 Visual\nFormat profile                   : Advanced Simple@L5\nFormat settings, BVOP            : 2\nFormat settings, QPel            : No\nFormat settings, GMC             : No warppoints\nFormat settings, Matrix          : Default (H.263)\nCodec ID                         : XVID\nCodec ID/Hint                    : XviD\nDuration                         : 1h 19mn\nBit rate                         : 2 398 Kbps\nWidth                            : 1 280 pixels\nHeight                           : 720 pixels\nDisplay aspect ratio             : 16:9\nFrame rate                       : 25.000 fps\nColor space                      : YUV\nChroma subsampling               : 4:2:0\nBit depth                        : 8 bits\nScan type                        : Progressive\nCompression mode                 : Lossy\nBits/(Pixel*Frame)               : 0.104\nStream size                      : 1.33 GiB (92%)\nWriting library                  : XviD 1.2.1 (UTC 2008-12-04)\n\nAudio\nID                               : 1\nFormat                           : MPEG Audio\nFormat version                   : Version 1\nFormat profile                   : Layer 3\nMode                             : Joint stereo\nCodec ID                         : 55\nCodec ID/Hint                    : MP3\nDuration                         : 1h 19mn\nBit rate mode                    : Constant\nBit rate                         : 192 Kbps\nChannel(s)                       : 2 channels\nSampling rate                    : 48.0 KHz\nCompression mode                 : Lossy\nDelay relative to video          : 40ms\nStream size                      : 2.22 MiB (0%)\nAlignment                        : Aligned on interleaves\nInterleave, duration             : 1174 ms (29.34 video frames)\nInterleave, preload duration     : 504 ms\n\n","torrent":{"xt":"urn:btih:7b9badfc61bcd3bd5aecd7ba7ed6e6a5e9ac57b3","amp;dn":"Esclaves+Au+Harem+%28marc+Dorcel%29","amp;tr":["udp%3A%2F%2Ftracker.openbittorrent.com%3A80","udp%3A%2F%2Fopen.demonii.com%3A1337","udp%3A%2F%2Ftracker.coppersurfer.tk%3A6969","udp%3A%2F%2Fexodus.desync.com%3A6969"],"infoHash":"7b9badfc61bcd3bd5aecd7ba7ed6e6a5e9ac57b3","infoHashBuffer":{"type":"Buffer","data":[123,155,173,252,97,188,211,189,90,236,215,186,126,214,230,165,233,172,87,179]},"announce":[],"urlList":[]}}